<?plantuml 1.2026.2?><svg xmlns="http://www.w3.org/2000/svg" xmlns:xlink="http://www.w3.org/1999/xlink" contentStyleType="text/css" data-diagram-type="CLASS" height="1031px" preserveAspectRatio="none" style="width:1161px;height:1031px;background:#FFFFFF;" version="1.1" viewBox="0 0 1161 1031" width="1161px" zoomAndPan="magnify"><title>URL System - Class Diagram</title><defs/><g><g class="title" data-source-line="14"><text fill="#000000" font-family="sans-serif" font-size="14" font-weight="bold" lengthAdjust="spacing" textLength="192.1787" x="477.4106" y="25.1074">URL System - Class Diagram</text></g><!--cluster Controller--><g class="cluster" data-qualified-name="Controller" data-source-line="20" id="ent0002"><rect fill="none" height="169" rx="2.5" ry="2.5" style="stroke:#000000;stroke-width:1.5;" width="382" x="292" y="46.6211"/><text fill="#000000" font-family="sans-serif" font-size="14" font-weight="bold" lengthAdjust="spacing" textLength="66.8896" x="449.5552" y="63.7285">Controller</text></g><!--cluster Service--><g class="cluster" data-qualified-name="Service" data-source-line="36" id="ent0004"><rect fill="none" height="393" rx="2.5" ry="2.5" style="stroke:#000000;stroke-width:1.5;" width="334" x="33" y="239.6211"/><text fill="#000000" font-family="sans-serif" font-size="14" font-weight="bold" lengthAdjust="spacing" textLength="49.8203" x="175.0898" y="256.7285">Service</text></g><!--cluster Repository--><g class="cluster" data-qualified-name="Repository" data-source-line="64" id="ent0006"><rect fill="none" height="114" rx="2.5" ry="2.5" style="stroke:#000000;stroke-width:1.5;" width="150" x="125" y="656.6211"/><text fill="#000000" font-family="sans-serif" font-size="14" font-weight="bold" lengthAdjust="spacing" textLength="73.124" x="163.438" y="673.7285">Repository</text></g><!--cluster Entity--><g class="cluster" data-qualified-name="Entity" data-source-line="74" id="ent0008"><rect fill="none" height="231" rx="2.5" ry="2.5" style="stroke:#000000;stroke-width:1.5;" width="162" x="7" y="794.6211"/><text fill="#000000" font-family="sans-serif" font-size="14" font-weight="bold" lengthAdjust="spacing" textLength="38.8896" x="68.5552" y="811.7285">Entity</text></g><!--cluster DTO--><g class="cluster" data-qualified-name="DTO" data-source-line="94" id="ent0010"><rect fill="none" height="101" rx="2.5" ry="2.5" style="stroke:#000000;stroke-width:1.5;" width="630" x="391" y="385.6211"/><text fill="#000000" font-family="sans-serif" font-size="14" font-weight="bold" lengthAdjust="spacing" textLength="29.5518" x="691.2241" y="402.7285">DTO</text></g><!--cluster Configuration--><g class="cluster" data-qualified-name="Configuration" data-source-line="110" id="ent0015"><rect fill="none" height="101" rx="2.5" ry="2.5" style="stroke:#000000;stroke-width:1.5;" width="303" x="349" y="663.1211"/><text fill="#000000" font-family="sans-serif" font-size="14" font-weight="bold" lengthAdjust="spacing" textLength="91.7588" x="454.6206" y="680.2285">Configuration</text></g><!--cluster Exception--><g class="cluster" data-qualified-name="Exception" data-source-line="122" id="ent0018"><rect fill="none" height="101" rx="2.5" ry="2.5" style="stroke:#000000;stroke-width:1.5;" width="457" x="698" y="80.6211"/><text fill="#000000" font-family="sans-serif" font-size="14" font-weight="bold" lengthAdjust="spacing" textLength="66.9033" x="893.0483" y="97.7285">Exception</text></g><!--cluster Infrastructure--><g class="cluster" data-qualified-name="Infrastructure" data-source-line="134" id="ent0021"><rect fill="none" height="114" rx="2.5" ry="2.5" style="stroke:#000000;stroke-width:1.5;" width="251" x="193" y="853.1211"/><text fill="#000000" font-family="sans-serif" font-size="14" font-weight="bold" lengthAdjust="spacing" textLength="91.0205" x="272.9897" y="870.2285">Infrastructure</text></g><!--class UrlController--><g class="entity" data-qualified-name="Controller.UrlController" data-source-line="22" id="ent0003"><rect fill="#FDFEFE" height="116.4453" rx="2.5" ry="2.5" style="stroke:#2E4053;stroke-width:0.5;" width="348.5469" x="308.5" y="83.6211"/><ellipse cx="435.5029" cy="105.9121" fill="#ADD1B2" rx="11" ry="11" style="stroke:#181818;stroke-width:1;"/><path d="M438.2686,101.7871 Q438.4248,101.5684 438.6123,101.459 Q438.7998,101.3496 439.0186,101.3496 Q439.3936,101.3496 439.6279,101.6152 Q439.8623,101.8652 439.8623,102.4746 L439.8623,103.9277 Q439.8623,104.5371 439.6279,104.8027 Q439.3936,105.0684 439.0186,105.0684 Q438.6748,105.0684 438.4717,104.8652 Q438.2686,104.6777 438.1592,104.1621 Q438.1123,103.8027 437.9248,103.6152 Q437.5967,103.2402 436.9873,103.0215 Q436.3779,102.8027 435.7529,102.8027 Q434.9873,102.8027 434.3467,103.1309 Q433.7217,103.459 433.2217,104.209 Q432.7373,104.959 432.7373,105.9902 L432.7373,107.084 Q432.7373,108.3184 433.6279,109.1465 Q434.5186,109.959 436.1123,109.959 Q437.0498,109.959 437.7061,109.709 Q438.0967,109.5527 438.5186,109.1152 Q438.7842,108.8496 438.9248,108.7715 Q439.0811,108.6934 439.2842,108.6934 Q439.6123,108.6934 439.8623,108.959 Q440.1279,109.209 440.1279,109.5527 Q440.1279,109.8965 439.7842,110.3027 Q439.2842,110.8809 438.4873,111.209 Q437.4092,111.6621 436.1123,111.6621 Q434.5967,111.6621 433.3936,111.0371 Q432.4092,110.5371 431.7217,109.4746 Q431.0342,108.3965 431.0342,107.1152 L431.0342,105.959 Q431.0342,104.6309 431.6436,103.4902 Q432.2686,102.334 433.3623,101.7246 Q434.4561,101.0996 435.6904,101.0996 Q436.4248,101.0996 437.0654,101.2715 Q437.7217,101.4277 438.2686,101.7871 Z " fill="#000000"/><text fill="#000000" font-family="sans-serif" font-size="12" font-style="italic" lengthAdjust="spacing" textLength="90.041" x="454.0029" y="101.5703">&#171;RestController&#187;</text><text fill="#000000" font-family="sans-serif" font-size="14" lengthAdjust="spacing" textLength="78.5723" x="459.7373" y="119.6895">UrlController</text><line style="stroke:#2E4053;stroke-width:0.5;" x1="309.5" x2="656.0469" y1="128.2031" y2="128.2031"/><line style="stroke:#2E4053;stroke-width:0.5;" x1="309.5" x2="656.0469" y1="136.2031" y2="136.2031"/><text fill="#000000" font-family="sans-serif" font-size="14" lengthAdjust="spacing" textLength="303.0645" x="314.5" y="155.3105">+shortenUrl(request : UrlRequest) : UrlResponse</text><text fill="#000000" font-family="sans-serif" font-size="14" lengthAdjust="spacing" textLength="259.4785" x="314.5" y="173.9316">+redirectToOriginalUrl(shortCode : String)</text><text fill="#000000" font-family="sans-serif" font-size="14" lengthAdjust="spacing" textLength="336.5469" x="314.5" y="192.5527">+getAnalytics(shortCode : String) : AnalyticsResponse</text></g><!--class UrlService--><g class="entity" data-qualified-name="Service.UrlService" data-source-line="38" id="ent0005"><rect fill="#FDFEFE" height="339.8984" rx="2.5" ry="2.5" style="stroke:#2E4053;stroke-width:0.5;" width="300.6543" x="49.5" y="276.6211"/><ellipse cx="163.2944" cy="298.9121" fill="#ADD1B2" rx="11" ry="11" style="stroke:#181818;stroke-width:1;"/><path d="M166.0601,294.7871 Q166.2163,294.5684 166.4038,294.459 Q166.5913,294.3496 166.8101,294.3496 Q167.1851,294.3496 167.4194,294.6152 Q167.6538,294.8652 167.6538,295.4746 L167.6538,296.9277 Q167.6538,297.5371 167.4194,297.8027 Q167.1851,298.0684 166.8101,298.0684 Q166.4663,298.0684 166.2632,297.8652 Q166.0601,297.6777 165.9507,297.1621 Q165.9038,296.8027 165.7163,296.6152 Q165.3882,296.2402 164.7788,296.0215 Q164.1694,295.8027 163.5444,295.8027 Q162.7788,295.8027 162.1382,296.1309 Q161.5132,296.459 161.0132,297.209 Q160.5288,297.959 160.5288,298.9902 L160.5288,300.084 Q160.5288,301.3184 161.4194,302.1465 Q162.3101,302.959 163.9038,302.959 Q164.8413,302.959 165.4976,302.709 Q165.8882,302.5527 166.3101,302.1152 Q166.5757,301.8496 166.7163,301.7715 Q166.8726,301.6934 167.0757,301.6934 Q167.4038,301.6934 167.6538,301.959 Q167.9194,302.209 167.9194,302.5527 Q167.9194,302.8965 167.5757,303.3027 Q167.0757,303.8809 166.2788,304.209 Q165.2007,304.6621 163.9038,304.6621 Q162.3882,304.6621 161.1851,304.0371 Q160.2007,303.5371 159.5132,302.4746 Q158.8257,301.3965 158.8257,300.1152 L158.8257,298.959 Q158.8257,297.6309 159.4351,296.4902 Q160.0601,295.334 161.1538,294.7246 Q162.2476,294.0996 163.4819,294.0996 Q164.2163,294.0996 164.8569,294.2715 Q165.5132,294.4277 166.0601,294.7871 Z " fill="#000000"/><text fill="#000000" font-family="sans-serif" font-size="12" font-style="italic" lengthAdjust="spacing" textLength="53.3613" x="189.3965" y="294.5703">&#171;Service&#187;</text><text fill="#000000" font-family="sans-serif" font-size="14" lengthAdjust="spacing" textLength="64.5654" x="183.7944" y="312.6895">UrlService</text><line style="stroke:#2E4053;stroke-width:0.5;" x1="50.5" x2="349.1543" y1="321.2031" y2="321.2031"/><line style="stroke:#2E4053;stroke-width:0.5;" x1="50.5" x2="349.1543" y1="329.2031" y2="329.2031"/><text fill="#000000" font-family="sans-serif" font-size="14" lengthAdjust="spacing" textLength="215.5029" x="55.5" y="348.3105">-createShortUrl(originalUrl : String)</text><text fill="#000000" font-family="sans-serif" font-size="14" lengthAdjust="spacing" textLength="3.8896" x="55.5" y="366.9316">&#160;</text><text fill="#000000" font-family="sans-serif" font-size="14" lengthAdjust="spacing" textLength="288.6543" x="55.5" y="385.5527">-getUrlAndIncrementClicks(shortCode : String)</text><text fill="#000000" font-family="sans-serif" font-size="14" lengthAdjust="spacing" textLength="3.8896" x="55.5" y="404.1738">&#160;</text><text fill="#000000" font-family="sans-serif" font-size="14" lengthAdjust="spacing" textLength="202.3027" x="55.5" y="422.7949">-getAnalytics(shortCode : String)</text><text fill="#000000" font-family="sans-serif" font-size="14" lengthAdjust="spacing" textLength="3.8896" x="55.5" y="441.416">&#160;</text><text fill="#000000" font-family="sans-serif" font-size="14" lengthAdjust="spacing" textLength="136.1855" x="55.5" y="460.0371">-generateShortCode()</text><text fill="#000000" font-family="sans-serif" font-size="14" lengthAdjust="spacing" textLength="3.8896" x="55.5" y="478.6582">&#160;</text><text fill="#000000" font-family="sans-serif" font-size="14" lengthAdjust="spacing" textLength="124.4619" x="55.5" y="497.2793">-getUrlFromCache()</text><text fill="#000000" font-family="sans-serif" font-size="14" lengthAdjust="spacing" textLength="3.8896" x="55.5" y="515.9004">&#160;</text><text fill="#000000" font-family="sans-serif" font-size="14" lengthAdjust="spacing" textLength="143.9238" x="55.5" y="534.5215">-getUrlFromDatabase()</text><text fill="#000000" font-family="sans-serif" font-size="14" lengthAdjust="spacing" textLength="3.8896" x="55.5" y="553.1426">&#160;</text><text fill="#000000" font-family="sans-serif" font-size="14" lengthAdjust="spacing" textLength="118.248" x="55.5" y="571.7637">-saveUrlToCache()</text><text fill="#000000" font-family="sans-serif" font-size="14" lengthAdjust="spacing" textLength="3.8896" x="55.5" y="590.3848">&#160;</text><text fill="#000000" font-family="sans-serif" font-size="14" lengthAdjust="spacing" textLength="120.5996" x="55.5" y="609.0059">-mapToResponse()</text></g><!--class UrlRepository--><g class="entity" data-qualified-name="Repository.UrlRepository" data-source-line="66" id="ent0007"><rect fill="#FDFEFE" height="60.582" rx="2.5" ry="2.5" style="stroke:#2E4053;stroke-width:0.5;" width="118.0527" x="141" y="693.6211"/><ellipse cx="156" cy="715.9121" fill="#B4A7E5" rx="11" ry="11" style="stroke:#181818;stroke-width:1;"/><path d="M156.9531,712.5527 L156.9531,719.209 L158.6719,719.209 Q159.2813,719.209 159.5469,719.4434 Q159.8125,719.6777 159.8125,720.0684 Q159.8125,720.4434 159.5469,720.6777 Q159.2813,720.9121 158.6719,720.9121 L153.5313,720.9121 Q152.9219,720.9121 152.6563,720.6777 Q152.3906,720.4434 152.3906,720.0527 Q152.3906,719.6777 152.6563,719.4434 Q152.9219,719.209 153.5313,719.209 L155.25,719.209 L155.25,712.5527 L153.5313,712.5527 Q152.9219,712.5527 152.6563,712.3184 Q152.3906,712.084 152.3906,711.6934 Q152.3906,711.3184 152.6563,711.084 Q152.9219,710.8496 153.5313,710.8496 L158.6719,710.8496 Q159.2813,710.8496 159.5469,711.084 Q159.8125,711.3184 159.8125,711.6934 Q159.8125,712.084 159.5469,712.3184 Q159.2813,712.5527 158.6719,712.5527 L156.9531,712.5527 Z " fill="#000000"/><text fill="#000000" font-family="sans-serif" font-size="12" font-style="italic" lengthAdjust="spacing" textLength="90.0527" x="168" y="711.5703">&#171;JpaRepository&#187;</text><text fill="#000000" font-family="sans-serif" font-size="14" font-style="italic" lengthAdjust="spacing" textLength="84.7998" x="170.6265" y="729.6895">UrlRepository</text><line style="stroke:#2E4053;stroke-width:0.5;" x1="142" x2="258.0527" y1="738.2031" y2="738.2031"/><line style="stroke:#2E4053;stroke-width:0.5;" x1="142" x2="258.0527" y1="746.2031" y2="746.2031"/></g><!--class Url--><g class="entity" data-qualified-name="Entity.Url" data-source-line="76" id="ent0009"><rect fill="#FDFEFE" height="178.3477" rx="2.5" ry="2.5" style="stroke:#2E4053;stroke-width:0.5;" width="129.4961" x="23.5" y="831.6211"/><ellipse cx="75.0566" cy="847.6211" fill="#ADD1B2" rx="11" ry="11" style="stroke:#181818;stroke-width:1;"/><path d="M77.8223,843.4961 Q77.9785,843.2773 78.166,843.168 Q78.3535,843.0586 78.5723,843.0586 Q78.9473,843.0586 79.1816,843.3242 Q79.416,843.5742 79.416,844.1836 L79.416,845.6367 Q79.416,846.2461 79.1816,846.5117 Q78.9473,846.7773 78.5723,846.7773 Q78.2285,846.7773 78.0254,846.5742 Q77.8223,846.3867 77.7129,845.8711 Q77.666,845.5117 77.4785,845.3242 Q77.1504,844.9492 76.541,844.7305 Q75.9316,844.5117 75.3066,844.5117 Q74.541,844.5117 73.9004,844.8398 Q73.2754,845.168 72.7754,845.918 Q72.291,846.668 72.291,847.6992 L72.291,848.793 Q72.291,850.0273 73.1816,850.8555 Q74.0723,851.668 75.666,851.668 Q76.6035,851.668 77.2598,851.418 Q77.6504,851.2617 78.0723,850.8242 Q78.3379,850.5586 78.4785,850.4805 Q78.6348,850.4023 78.8379,850.4023 Q79.166,850.4023 79.416,850.668 Q79.6816,850.918 79.6816,851.2617 Q79.6816,851.6055 79.3379,852.0117 Q78.8379,852.5898 78.041,852.918 Q76.9629,853.3711 75.666,853.3711 Q74.1504,853.3711 72.9473,852.7461 Q71.9629,852.2461 71.2754,851.1836 Q70.5879,850.1055 70.5879,848.8242 L70.5879,847.668 Q70.5879,846.3398 71.1973,845.1992 Q71.8223,844.043 72.916,843.4336 Q74.0098,842.8086 75.2441,842.8086 Q75.9785,842.8086 76.6191,842.9805 Q77.2754,843.1367 77.8223,843.4961 Z " fill="#000000"/><text fill="#000000" font-family="sans-serif" font-size="14" lengthAdjust="spacing" textLength="17.8828" x="95.5566" y="853.418">Url</text><line style="stroke:#2E4053;stroke-width:0.5;" x1="24.5" x2="151.9961" y1="863.6211" y2="863.6211"/><text fill="#000000" font-family="sans-serif" font-size="14" lengthAdjust="spacing" textLength="58.3721" x="29.5" y="882.7285">-id : Long</text><text fill="#000000" font-family="sans-serif" font-size="14" lengthAdjust="spacing" textLength="3.8896" x="29.5" y="901.3496">&#160;</text><text fill="#000000" font-family="sans-serif" font-size="14" lengthAdjust="spacing" textLength="115.9238" x="29.5" y="919.9707">-originalUrl : String</text><text fill="#000000" font-family="sans-serif" font-size="14" lengthAdjust="spacing" textLength="3.8896" x="29.5" y="938.5918">&#160;</text><text fill="#000000" font-family="sans-serif" font-size="14" lengthAdjust="spacing" textLength="117.4961" x="29.5" y="957.2129">-shortCode : String</text><text fill="#000000" font-family="sans-serif" font-size="14" lengthAdjust="spacing" textLength="3.8896" x="29.5" y="975.834">&#160;</text><text fill="#000000" font-family="sans-serif" font-size="14" lengthAdjust="spacing" textLength="112.0547" x="29.5" y="994.4551">-clickCount : Long</text><line style="stroke:#2E4053;stroke-width:0.5;" x1="24.5" x2="151.9961" y1="1001.9688" y2="1001.9688"/></g><!--class UrlRequest--><g class="entity" data-qualified-name="DTO.UrlRequest" data-source-line="96" id="ent0011"><rect fill="#FDFEFE" height="48" rx="2.5" ry="2.5" style="stroke:#2E4053;stroke-width:0.5;" width="102.0273" x="742" y="422.6211"/><ellipse cx="757" cy="438.6211" fill="#ADD1B2" rx="11" ry="11" style="stroke:#181818;stroke-width:1;"/><path d="M759.7656,434.4961 Q759.9219,434.2773 760.1094,434.168 Q760.2969,434.0586 760.5156,434.0586 Q760.8906,434.0586 761.125,434.3242 Q761.3594,434.5742 761.3594,435.1836 L761.3594,436.6367 Q761.3594,437.2461 761.125,437.5117 Q760.8906,437.7773 760.5156,437.7773 Q760.1719,437.7773 759.9688,437.5742 Q759.7656,437.3867 759.6563,436.8711 Q759.6094,436.5117 759.4219,436.3242 Q759.0938,435.9492 758.4844,435.7305 Q757.875,435.5117 757.25,435.5117 Q756.4844,435.5117 755.8438,435.8398 Q755.2188,436.168 754.7188,436.918 Q754.2344,437.668 754.2344,438.6992 L754.2344,439.793 Q754.2344,441.0273 755.125,441.8555 Q756.0156,442.668 757.6094,442.668 Q758.5469,442.668 759.2031,442.418 Q759.5938,442.2617 760.0156,441.8242 Q760.2813,441.5586 760.4219,441.4805 Q760.5781,441.4023 760.7813,441.4023 Q761.1094,441.4023 761.3594,441.668 Q761.625,441.918 761.625,442.2617 Q761.625,442.6055 761.2813,443.0117 Q760.7813,443.5898 759.9844,443.918 Q758.9063,444.3711 757.6094,444.3711 Q756.0938,444.3711 754.8906,443.7461 Q753.9063,443.2461 753.2188,442.1836 Q752.5313,441.1055 752.5313,439.8242 L752.5313,438.668 Q752.5313,437.3398 753.1406,436.1992 Q753.7656,435.043 754.8594,434.4336 Q755.9531,433.8086 757.1875,433.8086 Q757.9219,433.8086 758.5625,433.9805 Q759.2188,434.1367 759.7656,434.4961 Z " fill="#000000"/><text fill="#000000" font-family="sans-serif" font-size="14" lengthAdjust="spacing" textLength="70.0273" x="771" y="444.418">UrlRequest</text><line style="stroke:#2E4053;stroke-width:0.5;" x1="743" x2="843.0273" y1="454.6211" y2="454.6211"/><line style="stroke:#2E4053;stroke-width:0.5;" x1="743" x2="843.0273" y1="462.6211" y2="462.6211"/></g><!--class UrlResponse--><g class="entity" data-qualified-name="DTO.UrlResponse" data-source-line="98" id="ent0012"><rect fill="#FDFEFE" height="48" rx="2.5" ry="2.5" style="stroke:#2E4053;stroke-width:0.5;" width="112.9238" x="593.5" y="422.6211"/><ellipse cx="608.5" cy="438.6211" fill="#ADD1B2" rx="11" ry="11" style="stroke:#181818;stroke-width:1;"/><path d="M611.2656,434.4961 Q611.4219,434.2773 611.6094,434.168 Q611.7969,434.0586 612.0156,434.0586 Q612.3906,434.0586 612.625,434.3242 Q612.8594,434.5742 612.8594,435.1836 L612.8594,436.6367 Q612.8594,437.2461 612.625,437.5117 Q612.3906,437.7773 612.0156,437.7773 Q611.6719,437.7773 611.4688,437.5742 Q611.2656,437.3867 611.1563,436.8711 Q611.1094,436.5117 610.9219,436.3242 Q610.5938,435.9492 609.9844,435.7305 Q609.375,435.5117 608.75,435.5117 Q607.9844,435.5117 607.3438,435.8398 Q606.7188,436.168 606.2188,436.918 Q605.7344,437.668 605.7344,438.6992 L605.7344,439.793 Q605.7344,441.0273 606.625,441.8555 Q607.5156,442.668 609.1094,442.668 Q610.0469,442.668 610.7031,442.418 Q611.0938,442.2617 611.5156,441.8242 Q611.7813,441.5586 611.9219,441.4805 Q612.0781,441.4023 612.2813,441.4023 Q612.6094,441.4023 612.8594,441.668 Q613.125,441.918 613.125,442.2617 Q613.125,442.6055 612.7813,443.0117 Q612.2813,443.5898 611.4844,443.918 Q610.4063,444.3711 609.1094,444.3711 Q607.5938,444.3711 606.3906,443.7461 Q605.4063,443.2461 604.7188,442.1836 Q604.0313,441.1055 604.0313,439.8242 L604.0313,438.668 Q604.0313,437.3398 604.6406,436.1992 Q605.2656,435.043 606.3594,434.4336 Q607.4531,433.8086 608.6875,433.8086 Q609.4219,433.8086 610.0625,433.9805 Q610.7188,434.1367 611.2656,434.4961 Z " fill="#000000"/><text fill="#000000" font-family="sans-serif" font-size="14" lengthAdjust="spacing" textLength="80.9238" x="622.5" y="444.418">UrlResponse</text><line style="stroke:#2E4053;stroke-width:0.5;" x1="594.5" x2="705.4238" y1="454.6211" y2="454.6211"/><line style="stroke:#2E4053;stroke-width:0.5;" x1="594.5" x2="705.4238" y1="462.6211" y2="462.6211"/></g><!--class AnalyticsResponse--><g class="entity" data-qualified-name="DTO.AnalyticsResponse" data-source-line="100" id="ent0013"><rect fill="#FDFEFE" height="48" rx="2.5" ry="2.5" style="stroke:#2E4053;stroke-width:0.5;" width="151.0615" x="407.5" y="422.6211"/><ellipse cx="422.5" cy="438.6211" fill="#ADD1B2" rx="11" ry="11" style="stroke:#181818;stroke-width:1;"/><path d="M425.2656,434.4961 Q425.4219,434.2773 425.6094,434.168 Q425.7969,434.0586 426.0156,434.0586 Q426.3906,434.0586 426.625,434.3242 Q426.8594,434.5742 426.8594,435.1836 L426.8594,436.6367 Q426.8594,437.2461 426.625,437.5117 Q426.3906,437.7773 426.0156,437.7773 Q425.6719,437.7773 425.4688,437.5742 Q425.2656,437.3867 425.1563,436.8711 Q425.1094,436.5117 424.9219,436.3242 Q424.5938,435.9492 423.9844,435.7305 Q423.375,435.5117 422.75,435.5117 Q421.9844,435.5117 421.3438,435.8398 Q420.7188,436.168 420.2188,436.918 Q419.7344,437.668 419.7344,438.6992 L419.7344,439.793 Q419.7344,441.0273 420.625,441.8555 Q421.5156,442.668 423.1094,442.668 Q424.0469,442.668 424.7031,442.418 Q425.0938,442.2617 425.5156,441.8242 Q425.7813,441.5586 425.9219,441.4805 Q426.0781,441.4023 426.2813,441.4023 Q426.6094,441.4023 426.8594,441.668 Q427.125,441.918 427.125,442.2617 Q427.125,442.6055 426.7813,443.0117 Q426.2813,443.5898 425.4844,443.918 Q424.4063,444.3711 423.1094,444.3711 Q421.5938,444.3711 420.3906,443.7461 Q419.4063,443.2461 418.7188,442.1836 Q418.0313,441.1055 418.0313,439.8242 L418.0313,438.668 Q418.0313,437.3398 418.6406,436.1992 Q419.2656,435.043 420.3594,434.4336 Q421.4531,433.8086 422.6875,433.8086 Q423.4219,433.8086 424.0625,433.9805 Q424.7188,434.1367 425.2656,434.4961 Z " fill="#000000"/><text fill="#000000" font-family="sans-serif" font-size="14" lengthAdjust="spacing" textLength="119.0615" x="436.5" y="444.418">AnalyticsResponse</text><line style="stroke:#2E4053;stroke-width:0.5;" x1="408.5" x2="557.5615" y1="454.6211" y2="454.6211"/><line style="stroke:#2E4053;stroke-width:0.5;" x1="408.5" x2="557.5615" y1="462.6211" y2="462.6211"/></g><!--class ErrorResponse--><g class="entity" data-qualified-name="DTO.ErrorResponse" data-source-line="102" id="ent0014"><rect fill="#FDFEFE" height="48" rx="2.5" ry="2.5" style="stroke:#2E4053;stroke-width:0.5;" width="126.1514" x="879" y="422.6211"/><ellipse cx="894" cy="438.6211" fill="#ADD1B2" rx="11" ry="11" style="stroke:#181818;stroke-width:1;"/><path d="M896.7656,434.4961 Q896.9219,434.2773 897.1094,434.168 Q897.2969,434.0586 897.5156,434.0586 Q897.8906,434.0586 898.125,434.3242 Q898.3594,434.5742 898.3594,435.1836 L898.3594,436.6367 Q898.3594,437.2461 898.125,437.5117 Q897.8906,437.7773 897.5156,437.7773 Q897.1719,437.7773 896.9688,437.5742 Q896.7656,437.3867 896.6563,436.8711 Q896.6094,436.5117 896.4219,436.3242 Q896.0938,435.9492 895.4844,435.7305 Q894.875,435.5117 894.25,435.5117 Q893.4844,435.5117 892.8438,435.8398 Q892.2188,436.168 891.7188,436.918 Q891.2344,437.668 891.2344,438.6992 L891.2344,439.793 Q891.2344,441.0273 892.125,441.8555 Q893.0156,442.668 894.6094,442.668 Q895.5469,442.668 896.2031,442.418 Q896.5938,442.2617 897.0156,441.8242 Q897.2813,441.5586 897.4219,441.4805 Q897.5781,441.4023 897.7813,441.4023 Q898.1094,441.4023 898.3594,441.668 Q898.625,441.918 898.625,442.2617 Q898.625,442.6055 898.2813,443.0117 Q897.7813,443.5898 896.9844,443.918 Q895.9063,444.3711 894.6094,444.3711 Q893.0938,444.3711 891.8906,443.7461 Q890.9063,443.2461 890.2188,442.1836 Q889.5313,441.1055 889.5313,439.8242 L889.5313,438.668 Q889.5313,437.3398 890.1406,436.1992 Q890.7656,435.043 891.8594,434.4336 Q892.9531,433.8086 894.1875,433.8086 Q894.9219,433.8086 895.5625,433.9805 Q896.2188,434.1367 896.7656,434.4961 Z " fill="#000000"/><text fill="#000000" font-family="sans-serif" font-size="14" lengthAdjust="spacing" textLength="94.1514" x="908" y="444.418">ErrorResponse</text><line style="stroke:#2E4053;stroke-width:0.5;" x1="880" x2="1004.1514" y1="454.6211" y2="454.6211"/><line style="stroke:#2E4053;stroke-width:0.5;" x1="880" x2="1004.1514" y1="462.6211" y2="462.6211"/></g><!--class RedisConfig--><g class="entity" data-qualified-name="Configuration.RedisConfig" data-source-line="112" id="ent0016"><rect fill="#FDFEFE" height="48" rx="2.5" ry="2.5" style="stroke:#2E4053;stroke-width:0.5;" width="108.2617" x="528" y="700.1211"/><ellipse cx="543" cy="716.1211" fill="#ADD1B2" rx="11" ry="11" style="stroke:#181818;stroke-width:1;"/><path d="M545.7656,711.9961 Q545.9219,711.7773 546.1094,711.668 Q546.2969,711.5586 546.5156,711.5586 Q546.8906,711.5586 547.125,711.8242 Q547.3594,712.0742 547.3594,712.6836 L547.3594,714.1367 Q547.3594,714.7461 547.125,715.0117 Q546.8906,715.2773 546.5156,715.2773 Q546.1719,715.2773 545.9688,715.0742 Q545.7656,714.8867 545.6563,714.3711 Q545.6094,714.0117 545.4219,713.8242 Q545.0938,713.4492 544.4844,713.2305 Q543.875,713.0117 543.25,713.0117 Q542.4844,713.0117 541.8438,713.3398 Q541.2188,713.668 540.7188,714.418 Q540.2344,715.168 540.2344,716.1992 L540.2344,717.293 Q540.2344,718.5273 541.125,719.3555 Q542.0156,720.168 543.6094,720.168 Q544.5469,720.168 545.2031,719.918 Q545.5938,719.7617 546.0156,719.3242 Q546.2813,719.0586 546.4219,718.9805 Q546.5781,718.9023 546.7813,718.9023 Q547.1094,718.9023 547.3594,719.168 Q547.625,719.418 547.625,719.7617 Q547.625,720.1055 547.2813,720.5117 Q546.7813,721.0898 545.9844,721.418 Q544.9063,721.8711 543.6094,721.8711 Q542.0938,721.8711 540.8906,721.2461 Q539.9063,720.7461 539.2188,719.6836 Q538.5313,718.6055 538.5313,717.3242 L538.5313,716.168 Q538.5313,714.8398 539.1406,713.6992 Q539.7656,712.543 540.8594,711.9336 Q541.9531,711.3086 543.1875,711.3086 Q543.9219,711.3086 544.5625,711.4805 Q545.2188,711.6367 545.7656,711.9961 Z " fill="#000000"/><text fill="#000000" font-family="sans-serif" font-size="14" lengthAdjust="spacing" textLength="76.2617" x="557" y="721.918">RedisConfig</text><line style="stroke:#2E4053;stroke-width:0.5;" x1="529" x2="635.2617" y1="732.1211" y2="732.1211"/><line style="stroke:#2E4053;stroke-width:0.5;" x1="529" x2="635.2617" y1="740.1211" y2="740.1211"/></g><!--class OpenApiConfig--><g class="entity" data-qualified-name="Configuration.OpenApiConfig" data-source-line="114" id="ent0017"><rect fill="#FDFEFE" height="48" rx="2.5" ry="2.5" style="stroke:#2E4053;stroke-width:0.5;" width="126.9512" x="365.5" y="700.1211"/><ellipse cx="380.5" cy="716.1211" fill="#ADD1B2" rx="11" ry="11" style="stroke:#181818;stroke-width:1;"/><path d="M383.2656,711.9961 Q383.4219,711.7773 383.6094,711.668 Q383.7969,711.5586 384.0156,711.5586 Q384.3906,711.5586 384.625,711.8242 Q384.8594,712.0742 384.8594,712.6836 L384.8594,714.1367 Q384.8594,714.7461 384.625,715.0117 Q384.3906,715.2773 384.0156,715.2773 Q383.6719,715.2773 383.4688,715.0742 Q383.2656,714.8867 383.1563,714.3711 Q383.1094,714.0117 382.9219,713.8242 Q382.5938,713.4492 381.9844,713.2305 Q381.375,713.0117 380.75,713.0117 Q379.9844,713.0117 379.3438,713.3398 Q378.7188,713.668 378.2188,714.418 Q377.7344,715.168 377.7344,716.1992 L377.7344,717.293 Q377.7344,718.5273 378.625,719.3555 Q379.5156,720.168 381.1094,720.168 Q382.0469,720.168 382.7031,719.918 Q383.0938,719.7617 383.5156,719.3242 Q383.7813,719.0586 383.9219,718.9805 Q384.0781,718.9023 384.2813,718.9023 Q384.6094,718.9023 384.8594,719.168 Q385.125,719.418 385.125,719.7617 Q385.125,720.1055 384.7813,720.5117 Q384.2813,721.0898 383.4844,721.418 Q382.4063,721.8711 381.1094,721.8711 Q379.5938,721.8711 378.3906,721.2461 Q377.4063,720.7461 376.7188,719.6836 Q376.0313,718.6055 376.0313,717.3242 L376.0313,716.168 Q376.0313,714.8398 376.6406,713.6992 Q377.2656,712.543 378.3594,711.9336 Q379.4531,711.3086 380.6875,711.3086 Q381.4219,711.3086 382.0625,711.4805 Q382.7188,711.6367 383.2656,711.9961 Z " fill="#000000"/><text fill="#000000" font-family="sans-serif" font-size="14" lengthAdjust="spacing" textLength="94.9512" x="394.5" y="721.918">OpenApiConfig</text><line style="stroke:#2E4053;stroke-width:0.5;" x1="366.5" x2="491.4512" y1="732.1211" y2="732.1211"/><line style="stroke:#2E4053;stroke-width:0.5;" x1="366.5" x2="491.4512" y1="740.1211" y2="740.1211"/></g><!--class GlobalExceptionHandler--><g class="entity" data-qualified-name="Exception.GlobalExceptionHandler" data-source-line="124" id="ent0019"><rect fill="#FDFEFE" height="48" rx="2.5" ry="2.5" style="stroke:#2E4053;stroke-width:0.5;" width="182.9785" x="955.5" y="117.6211"/><ellipse cx="970.5" cy="133.6211" fill="#ADD1B2" rx="11" ry="11" style="stroke:#181818;stroke-width:1;"/><path d="M973.2656,129.4961 Q973.4219,129.2773 973.6094,129.168 Q973.7969,129.0586 974.0156,129.0586 Q974.3906,129.0586 974.625,129.3242 Q974.8594,129.5742 974.8594,130.1836 L974.8594,131.6367 Q974.8594,132.2461 974.625,132.5117 Q974.3906,132.7773 974.0156,132.7773 Q973.6719,132.7773 973.4688,132.5742 Q973.2656,132.3867 973.1563,131.8711 Q973.1094,131.5117 972.9219,131.3242 Q972.5938,130.9492 971.9844,130.7305 Q971.375,130.5117 970.75,130.5117 Q969.9844,130.5117 969.3438,130.8398 Q968.7188,131.168 968.2188,131.918 Q967.7344,132.668 967.7344,133.6992 L967.7344,134.793 Q967.7344,136.0273 968.625,136.8555 Q969.5156,137.668 971.1094,137.668 Q972.0469,137.668 972.7031,137.418 Q973.0938,137.2617 973.5156,136.8242 Q973.7813,136.5586 973.9219,136.4805 Q974.0781,136.4023 974.2813,136.4023 Q974.6094,136.4023 974.8594,136.668 Q975.125,136.918 975.125,137.2617 Q975.125,137.6055 974.7813,138.0117 Q974.2813,138.5898 973.4844,138.918 Q972.4063,139.3711 971.1094,139.3711 Q969.5938,139.3711 968.3906,138.7461 Q967.4063,138.2461 966.7188,137.1836 Q966.0313,136.1055 966.0313,134.8242 L966.0313,133.668 Q966.0313,132.3398 966.6406,131.1992 Q967.2656,130.043 968.3594,129.4336 Q969.4531,128.8086 970.6875,128.8086 Q971.4219,128.8086 972.0625,128.9805 Q972.7188,129.1367 973.2656,129.4961 Z " fill="#000000"/><text fill="#000000" font-family="sans-serif" font-size="14" lengthAdjust="spacing" textLength="150.9785" x="984.5" y="139.418">GlobalExceptionHandler</text><line style="stroke:#2E4053;stroke-width:0.5;" x1="956.5" x2="1137.4785" y1="149.6211" y2="149.6211"/><line style="stroke:#2E4053;stroke-width:0.5;" x1="956.5" x2="1137.4785" y1="157.6211" y2="157.6211"/></g><!--class ShortUrlNotFoundException--><g class="entity" data-qualified-name="Exception.ShortUrlNotFoundException" data-source-line="126" id="ent0020"><rect fill="#FDFEFE" height="48" rx="2.5" ry="2.5" style="stroke:#2E4053;stroke-width:0.5;" width="206.3096" x="714" y="117.6211"/><ellipse cx="729" cy="133.6211" fill="#ADD1B2" rx="11" ry="11" style="stroke:#181818;stroke-width:1;"/><path d="M731.7656,129.4961 Q731.9219,129.2773 732.1094,129.168 Q732.2969,129.0586 732.5156,129.0586 Q732.8906,129.0586 733.125,129.3242 Q733.3594,129.5742 733.3594,130.1836 L733.3594,131.6367 Q733.3594,132.2461 733.125,132.5117 Q732.8906,132.7773 732.5156,132.7773 Q732.1719,132.7773 731.9688,132.5742 Q731.7656,132.3867 731.6563,131.8711 Q731.6094,131.5117 731.4219,131.3242 Q731.0938,130.9492 730.4844,130.7305 Q729.875,130.5117 729.25,130.5117 Q728.4844,130.5117 727.8438,130.8398 Q727.2188,131.168 726.7188,131.918 Q726.2344,132.668 726.2344,133.6992 L726.2344,134.793 Q726.2344,136.0273 727.125,136.8555 Q728.0156,137.668 729.6094,137.668 Q730.5469,137.668 731.2031,137.418 Q731.5938,137.2617 732.0156,136.8242 Q732.2813,136.5586 732.4219,136.4805 Q732.5781,136.4023 732.7813,136.4023 Q733.1094,136.4023 733.3594,136.668 Q733.625,136.918 733.625,137.2617 Q733.625,137.6055 733.2813,138.0117 Q732.7813,138.5898 731.9844,138.918 Q730.9063,139.3711 729.6094,139.3711 Q728.0938,139.3711 726.8906,138.7461 Q725.9063,138.2461 725.2188,137.1836 Q724.5313,136.1055 724.5313,134.8242 L724.5313,133.668 Q724.5313,132.3398 725.1406,131.1992 Q725.7656,130.043 726.8594,129.4336 Q727.9531,128.8086 729.1875,128.8086 Q729.9219,128.8086 730.5625,128.9805 Q731.2188,129.1367 731.7656,129.4961 Z " fill="#000000"/><text fill="#000000" font-family="sans-serif" font-size="14" lengthAdjust="spacing" textLength="174.3096" x="743" y="139.418">ShortUrlNotFoundException</text><line style="stroke:#2E4053;stroke-width:0.5;" x1="715" x2="919.3096" y1="149.6211" y2="149.6211"/><line style="stroke:#2E4053;stroke-width:0.5;" x1="715" x2="919.3096" y1="157.6211" y2="157.6211"/></g><!--class PostgreSQL--><g class="entity" data-qualified-name="Infrastructure.PostgreSQL" data-source-line="136" id="ent0022"><rect fill="#FDFEFE" height="60.582" rx="2.5" ry="2.5" style="stroke:#2E4053;stroke-width:0.5;" width="108.2617" x="209" y="890.1211"/><ellipse cx="224" cy="912.4121" fill="#ADD1B2" rx="11" ry="11" style="stroke:#181818;stroke-width:1;"/><path d="M226.7656,908.2871 Q226.9219,908.0684 227.1094,907.959 Q227.2969,907.8496 227.5156,907.8496 Q227.8906,907.8496 228.125,908.1152 Q228.3594,908.3652 228.3594,908.9746 L228.3594,910.4277 Q228.3594,911.0371 228.125,911.3027 Q227.8906,911.5684 227.5156,911.5684 Q227.1719,911.5684 226.9688,911.3652 Q226.7656,911.1777 226.6563,910.6621 Q226.6094,910.3027 226.4219,910.1152 Q226.0938,909.7402 225.4844,909.5215 Q224.875,909.3027 224.25,909.3027 Q223.4844,909.3027 222.8438,909.6309 Q222.2188,909.959 221.7188,910.709 Q221.2344,911.459 221.2344,912.4902 L221.2344,913.584 Q221.2344,914.8184 222.125,915.6465 Q223.0156,916.459 224.6094,916.459 Q225.5469,916.459 226.2031,916.209 Q226.5938,916.0527 227.0156,915.6152 Q227.2813,915.3496 227.4219,915.2715 Q227.5781,915.1934 227.7813,915.1934 Q228.1094,915.1934 228.3594,915.459 Q228.625,915.709 228.625,916.0527 Q228.625,916.3965 228.2813,916.8027 Q227.7813,917.3809 226.9844,917.709 Q225.9063,918.1621 224.6094,918.1621 Q223.0938,918.1621 221.8906,917.5371 Q220.9063,917.0371 220.2188,915.9746 Q219.5313,914.8965 219.5313,913.6152 L219.5313,912.459 Q219.5313,911.1309 220.1406,909.9902 Q220.7656,908.834 221.8594,908.2246 Q222.9531,907.5996 224.1875,907.5996 Q224.9219,907.5996 225.5625,907.7715 Q226.2188,907.9277 226.7656,908.2871 Z " fill="#000000"/><text fill="#000000" font-family="sans-serif" font-size="12" font-style="italic" lengthAdjust="spacing" textLength="64.7168" x="243.7725" y="908.0703">&#171;Database&#187;</text><text fill="#000000" font-family="sans-serif" font-size="14" lengthAdjust="spacing" textLength="76.2617" x="238" y="926.1895">PostgreSQL</text><line style="stroke:#2E4053;stroke-width:0.5;" x1="210" x2="316.2617" y1="934.7031" y2="934.7031"/><line style="stroke:#2E4053;stroke-width:0.5;" x1="210" x2="316.2617" y1="942.7031" y2="942.7031"/></g><!--class Redis--><g class="entity" data-qualified-name="Infrastructure.Redis" data-source-line="138" id="ent0023"><rect fill="#FDFEFE" height="60.582" rx="2.5" ry="2.5" style="stroke:#2E4053;stroke-width:0.5;" width="76.0352" x="352" y="890.1211"/><ellipse cx="367" cy="912.4121" fill="#ADD1B2" rx="11" ry="11" style="stroke:#181818;stroke-width:1;"/><path d="M369.7656,908.2871 Q369.9219,908.0684 370.1094,907.959 Q370.2969,907.8496 370.5156,907.8496 Q370.8906,907.8496 371.125,908.1152 Q371.3594,908.3652 371.3594,908.9746 L371.3594,910.4277 Q371.3594,911.0371 371.125,911.3027 Q370.8906,911.5684 370.5156,911.5684 Q370.1719,911.5684 369.9688,911.3652 Q369.7656,911.1777 369.6563,910.6621 Q369.6094,910.3027 369.4219,910.1152 Q369.0938,909.7402 368.4844,909.5215 Q367.875,909.3027 367.25,909.3027 Q366.4844,909.3027 365.8438,909.6309 Q365.2188,909.959 364.7188,910.709 Q364.2344,911.459 364.2344,912.4902 L364.2344,913.584 Q364.2344,914.8184 365.125,915.6465 Q366.0156,916.459 367.6094,916.459 Q368.5469,916.459 369.2031,916.209 Q369.5938,916.0527 370.0156,915.6152 Q370.2813,915.3496 370.4219,915.2715 Q370.5781,915.1934 370.7813,915.1934 Q371.1094,915.1934 371.3594,915.459 Q371.625,915.709 371.625,916.0527 Q371.625,916.3965 371.2813,916.8027 Q370.7813,917.3809 369.9844,917.709 Q368.9063,918.1621 367.6094,918.1621 Q366.0938,918.1621 364.8906,917.5371 Q363.9063,917.0371 363.2188,915.9746 Q362.5313,914.8965 362.5313,913.6152 L362.5313,912.459 Q362.5313,911.1309 363.1406,909.9902 Q363.7656,908.834 364.8594,908.2246 Q365.9531,907.5996 367.1875,907.5996 Q367.9219,907.5996 368.5625,907.7715 Q369.2188,907.9277 369.7656,908.2871 Z " fill="#000000"/><text fill="#000000" font-family="sans-serif" font-size="12" font-style="italic" lengthAdjust="spacing" textLength="48.0352" x="379" y="908.0703">&#171;Cache&#187;</text><text fill="#000000" font-family="sans-serif" font-size="14" lengthAdjust="spacing" textLength="35.793" x="385.1211" y="926.1895">Redis</text><line style="stroke:#2E4053;stroke-width:0.5;" x1="353" x2="427.0352" y1="934.7031" y2="934.7031"/><line style="stroke:#2E4053;stroke-width:0.5;" x1="353" x2="427.0352" y1="942.7031" y2="942.7031"/></g><!--link UrlController to UrlService--><g class="link" data-entity-1="ent0003" data-entity-2="ent0005" data-link-type="dependency" data-source-line="146" id="lnk24"><path codeLine="146" d="M422.49,199.9211 C411.86,210.3411 401.01,221.2011 391,231.6211 C377.2,245.9911 367.1155,256.6784 353.0655,271.9284" fill="none" id="UrlController-to-UrlService" style="stroke:#2E4053;stroke-width:1;"/><polygon fill="#2E4053" points="349,276.3411,358.04,272.4324,352.3879,272.6638,352.1564,267.0117,349,276.3411" style="stroke:#2E4053;stroke-width:1;"/></g><!--link UrlService to UrlRepository--><g class="link" data-entity-1="ent0005" data-entity-2="ent0007" data-link-type="dependency" data-source-line="148" id="lnk25"><path codeLine="148" d="M200,617.0011 C200,646.3211 200,667.6211 200,687.1811" fill="none" id="UrlService-to-UrlRepository" style="stroke:#2E4053;stroke-width:1;"/><polygon fill="#2E4053" points="200,693.1811,204,684.1811,200,688.1811,196,684.1811,200,693.1811" style="stroke:#2E4053;stroke-width:1;"/></g><!--link UrlService to Redis--><g class="link" data-entity-1="ent0005" data-entity-2="ent0023" data-link-type="dependency" data-source-line="150" id="lnk26"><path codeLine="150" d="M268.06,616.6911 C308.63,717.4711 354.0996,830.4451 375.8596,884.5051" fill="none" id="UrlService-to-Redis" style="stroke:#2E4053;stroke-width:1;"/><polygon fill="#2E4053" points="378.1,890.0711,378.4501,880.2285,376.233,885.4327,371.0287,883.2157,378.1,890.0711" style="stroke:#2E4053;stroke-width:1;"/></g><!--link UrlRepository to Url--><g class="link" data-entity-1="ent0007" data-entity-2="ent0009" data-link-type="dependency" data-source-line="152" id="lnk27"><path codeLine="152" d="M182.99,754.6611 C171.18,775.1711 157.7751,798.4621 141.9151,825.9921" fill="none" id="UrlRepository-to-Url" style="stroke:#2E4053;stroke-width:1;"/><polygon fill="#2E4053" points="138.92,831.1911,146.8787,825.3894,141.4159,826.8586,139.9467,821.3959,138.92,831.1911" style="stroke:#2E4053;stroke-width:1;"/></g><!--link UrlService to Url--><g class="link" data-entity-1="ent0005" data-entity-2="ent0009" data-link-type="dependency" data-source-line="154" id="lnk28"><path codeLine="154" d="M133.88,616.7611 C130.63,627.4611 127.63,638.1411 125,648.6211 C109.88,708.7211 101.174,771.9926 95.674,825.4526" fill="none" id="UrlService-to-Url" style="stroke:#2E4053;stroke-width:1;"/><polygon fill="#2E4053" points="95.06,831.4211,99.9601,822.8777,95.5717,826.4473,92.0021,822.059,95.06,831.4211" style="stroke:#2E4053;stroke-width:1;"/></g><!--link UrlController to UrlRequest--><g class="link" data-entity-1="ent0003" data-entity-2="ent0011" data-link-type="dependency" data-source-line="156" id="lnk29"><path codeLine="156" d="M630.9,199.7111 C653.3,207.9611 676.2,216.1711 698,223.6211 C709.44,227.5311 715.39,223.1311 724,231.6211 C777.49,284.4011 789.1804,372.8225 791.8704,416.4025" fill="none" id="UrlController-to-UrlRequest" style="stroke:#2E4053;stroke-width:1;stroke-dasharray:7,7;"/><polygon fill="#2E4053" points="792.24,422.3911,795.6779,413.1618,791.932,417.4006,787.6931,413.6546,792.24,422.3911" style="stroke:#2E4053;stroke-width:1;"/></g><!--link UrlController to UrlResponse--><g class="link" data-entity-1="ent0003" data-entity-2="ent0012" data-link-type="dependency" data-source-line="158" id="lnk30"><path codeLine="158" d="M550.58,199.6511 C559.96,209.6311 568.82,220.4311 576,231.6211 C616.21,294.3311 636.2493,375.5804 644.5593,416.6204" fill="none" id="UrlController-to-UrlResponse" style="stroke:#2E4053;stroke-width:1;stroke-dasharray:7,7;"/><polygon fill="#2E4053" points="645.75,422.5011,647.8843,412.8863,644.7577,417.6005,640.0434,414.4739,645.75,422.5011" style="stroke:#2E4053;stroke-width:1;"/></g><!--link UrlController to AnalyticsResponse--><g class="link" data-entity-1="ent0003" data-entity-2="ent0013" data-link-type="dependency" data-source-line="160" id="lnk31"><path codeLine="160" d="M483,199.9711 C483,267.2211 483,369.4911 483,416.5511" fill="none" id="UrlController-to-AnalyticsResponse" style="stroke:#2E4053;stroke-width:1;stroke-dasharray:7,7;"/><polygon fill="#2E4053" points="483,422.5511,487,413.5511,483,417.5511,479,413.5511,483,422.5511" style="stroke:#2E4053;stroke-width:1;"/></g><!--link GlobalExceptionHandler to ErrorResponse--><g class="link" data-entity-1="ent0019" data-entity-2="ent0014" data-link-type="dependency" data-source-line="162" id="lnk32"><path codeLine="162" d="M1038.94,165.8911 C1019.39,222.2911 971.6353,360.1221 952.0553,416.6021" fill="none" id="GlobalExceptionHandler-to-ErrorResponse" style="stroke:#2E4053;stroke-width:1;stroke-dasharray:7,7;"/><polygon fill="#2E4053" points="950.09,422.2711,956.8173,415.0778,951.7277,417.5469,949.2586,412.4574,950.09,422.2711" style="stroke:#2E4053;stroke-width:1;"/></g><!--link RedisConfig to Redis--><g class="link" data-entity-1="ent0016" data-entity-2="ent0023" data-link-type="dependency" data-source-line="164" id="lnk33"><path codeLine="164" d="M559.22,748.2011 C524.36,783.5211 461.9746,846.7006 423.5446,885.6406" fill="none" id="RedisConfig-to-Redis" style="stroke:#2E4053;stroke-width:1;"/><polygon fill="#2E4053" points="419.33,889.9111,428.4989,886.315,422.8422,886.3523,422.8049,880.6956,419.33,889.9111" style="stroke:#2E4053;stroke-width:1;"/></g><!--link UrlRepository to PostgreSQL--><g class="link" data-entity-1="ent0007" data-entity-2="ent0022" data-link-type="dependency" data-source-line="166" id="lnk34"><path codeLine="166" d="M209.57,754.6611 C221.41,791.2211 239.6113,847.413 251.4913,884.093" fill="none" id="UrlRepository-to-PostgreSQL" style="stroke:#2E4053;stroke-width:1;"/><polygon fill="#2E4053" points="253.34,889.8011,254.3723,880.0065,251.7994,885.0444,246.7615,882.4715,253.34,889.8011" style="stroke:#2E4053;stroke-width:1;"/></g><?plantuml-src hLNRRjf047ttLwoI1n95H54lBnL5eWRQLAXfCVc0nHxCAcRNdLsIqgZ_tjarnclYHgeDui6UCnVFdDcplO___GjwB3Ax389UYzX0FmYPS-GRjkJnGufgAvDGPGhPqreOy72zvebw4Z9bAvvf7uaphlN861JBhO7RMCb8_0Psuxdab9odu3wK8SI6opJpSumGrLDH-FpDvDtD-xSU6De2dnGcWA-x7BLmFXrF9zD941XXgExzVCQYdJQmOVqYW8q5JoayQ3My7WkLDAYo393D-0wm7GVxuR2pAjqPUmu2DrTsZvbNPZ2OWpQLOJYqdbTwhT209DyBX9zRSc4VREIyUBaittIk975tXP08IyD2tQ58XUIP3NLPGfK0kKT4fqmlWwiKp8ZmdH6nRlAWfmD-A13ySVzsKuq07qKC9ndfFbTzdcM1mM3_L4on7oDm0v7jqOv3LQFn1XBqQI9a6idaLbB41gG9Cn4_D4wdS7zrWCv50fQbBNfHrPcYseGyNX_Rnjpm9TU5MVD78Fj2LPuRdYzKIOYrTA5a3hdImYZSdOILAfqZHaW3kEB4Y5lIGwd1u6lEg_VXi4C74qaYS9glBrBLLyhjZqY8rPcIAJqtBOybwWN_Tk_i-eIaM-OGtuMiyUBk97rIddgJUpMfMSe3NvWQbA009gJlM9E7regx4kcM3ejGihlSLhcyJkSaZhe0IzDT3dAKYzBOVWj_nP3RShhh3fQ9lE_-dAabpmx85ouJkY5Aj9IrRyfCxHLvyElK3XrSefnesH2pf8HT-xgLA-JQu3OsM_Hb-xlI9aM8Vin85ahjiuhWSKQ8qxzEGZ67p2s4NekyPJVrAxlV7tgNZaFB2sWFLHBt0dLzEQkdY_kmfbJ7nQ-lXxMJ-m-qF9SluOOJtRndpllec7idwVLkAdQ3lm00?></g></svg>