<?plantuml 1.2026.2?><svg xmlns="http://www.w3.org/2000/svg" xmlns:xlink="http://www.w3.org/1999/xlink" contentStyleType="text/css" data-diagram-type="SEQUENCE" height="1820px" preserveAspectRatio="none" style="width:876px;height:1820px;background:#FFFFFF;" version="1.1" viewBox="0 0 876 1820" width="876px" zoomAndPan="magnify"><title>&lt;size:20&gt;&lt;b&gt;URL System - Redirect Request Flow&lt;/b&gt;&lt;/size&gt;
&lt;size:12&gt;Cache-Aside Pattern with Redis Synchronization&lt;/size&gt;</title><defs/><g><text fill="#000000" font-family="sans-serif" font-size="20" font-weight="bold" lengthAdjust="spacing" textLength="351.1816" x="258.7837" y="36.582">URL System - Redirect Request Flow</text><text fill="#000000" font-family="sans-serif" font-size="12" font-weight="bold" lengthAdjust="spacing" textLength="277.3828" x="295.6831" y="54.5508">Cache-Aside Pattern with Redis Synchronization</text><rect fill="#D6EAF8" height="1745.334" style="stroke:#5D6D7E;stroke-width:0.5;" width="123.0444" x="149.7383" y="69.5625"/><text fill="#000000" font-family="sans-serif" font-size="13" font-weight="bold" lengthAdjust="spacing" textLength="117.0444" x="152.7383" y="83.5908">Presentation Layer</text><rect fill="#D5F5E3" height="1745.334" style="stroke:#5D6D7E;stroke-width:0.5;" width="102.1035" x="448.0093" y="69.5625"/><text fill="#000000" font-family="sans-serif" font-size="13" font-weight="bold" lengthAdjust="spacing" textLength="96.1035" x="451.0093" y="83.5908">Business Layer</text><rect fill="#FCF3CF" height="1745.334" style="stroke:#5D6D7E;stroke-width:0.5;" width="186.4131" x="648.6436" y="69.5625"/><text fill="#000000" font-family="sans-serif" font-size="13" font-weight="bold" lengthAdjust="spacing" textLength="122.8208" x="680.4397" y="83.5908">Infrastructure Layer</text><g><title>UrlController</title><rect fill="#FDFEFE" height="1225.7266" style="stroke:#181818;stroke-width:1;" width="10" x="206.2605" y="234.0566"/></g><g><title>UrlService</title><rect fill="#FDFEFE" height="1145.8535" style="stroke:#181818;stroke-width:1;" width="10" x="494.061" y="265.3477"/></g><g><title>PostgreSQL</title><rect fill="#FDFEFE" height="31.291" style="stroke:#181818;stroke-width:1;" width="10" x="784.9258" y="708.9258"/></g><g><title>PostgreSQL</title><rect fill="#FDFEFE" height="31.291" style="stroke:#181818;stroke-width:1;" width="10" x="784.9258" y="1103"/></g><rect fill="none" height="439.8691" style="stroke:#000000;stroke-width:1.5;" width="408.5586" x="447.4268" y="356.9297"/><g class="participant-lifeline" data-entity-uid="part1" data-qualified-name="Client" id="part1-lifeline"><g><title>Client</title><rect fill="#000000" fill-opacity="0.00000" height="1577.8008" width="8" x="28.8965" y="155.4746"/><line style="stroke:#2E4053;stroke-width:0.5;stroke-dasharray:5,5;" x1="32" x2="32" y1="155.4746" y2="1733.2754"/></g></g><g class="participant-lifeline" data-entity-uid="part2" data-qualified-name="Controller" id="part2-lifeline"><g><title>UrlController</title><rect fill="#000000" fill-opacity="0.00000" height="1577.8008" width="8" x="207.2605" y="155.4746"/><line style="stroke:#2E4053;stroke-width:0.5;stroke-dasharray:5,5;" x1="211.0916" x2="211.0916" y1="155.4746" y2="1733.2754"/></g></g><g class="participant-lifeline" data-entity-uid="part3" data-qualified-name="Service" id="part3-lifeline"><g><title>UrlService</title><rect fill="#000000" fill-opacity="0.00000" height="1577.8008" width="8" x="495.061" y="155.4746"/><line style="stroke:#2E4053;stroke-width:0.5;stroke-dasharray:5,5;" x1="498.4268" x2="498.4268" y1="155.4746" y2="1733.2754"/></g></g><g class="participant-lifeline" data-entity-uid="part4" data-qualified-name="Redis" id="part4-lifeline"><g><title>Redis Cache</title><rect fill="#000000" fill-opacity="0.00000" height="1577.8008" width="8" x="691.7192" y="155.4746"/><line style="stroke:#2E4053;stroke-width:0.5;stroke-dasharray:5,5;" x1="695.6436" x2="695.6436" y1="155.4746" y2="1733.2754"/></g></g><g class="participant-lifeline" data-entity-uid="part5" data-qualified-name="DB" id="part5-lifeline"><g><title>PostgreSQL</title><rect fill="#000000" fill-opacity="0.00000" height="1577.8008" width="8" x="785.9258" y="155.4746"/><line style="stroke:#2E4053;stroke-width:0.5;stroke-dasharray:5,5;" x1="789.7949" x2="789.7949" y1="155.4746" y2="1733.2754"/></g></g><g class="participant participant-head" data-entity-uid="part1" data-qualified-name="Client" id="part1-head"><text fill="#000000" font-family="sans-serif" font-size="14" lengthAdjust="spacing" textLength="35.793" x="12" y="151.9609">Client</text><ellipse cx="32.8965" cy="85.3535" fill="#D6EAF8" rx="8" ry="8" style="stroke:#1F618D;stroke-width:0.5;"/><path d="M32.8965,93.3535 L32.8965,120.3535 M19.8965,101.3535 L45.8965,101.3535 M32.8965,120.3535 L19.8965,135.3535 M32.8965,120.3535 L45.8965,135.3535" fill="none" style="stroke:#1F618D;stroke-width:0.5;"/></g><g class="participant participant-tail" data-entity-uid="part1" data-qualified-name="Client" id="part1-tail"><text fill="#000000" font-family="sans-serif" font-size="14" lengthAdjust="spacing" textLength="35.793" x="12" y="1747.3828">Client</text><ellipse cx="32.8965" cy="1759.3965" fill="#D6EAF8" rx="8" ry="8" style="stroke:#1F618D;stroke-width:0.5;"/><path d="M32.8965,1767.3965 L32.8965,1794.3965 M19.8965,1775.3965 L45.8965,1775.3965 M32.8965,1794.3965 L19.8965,1809.3965 M32.8965,1794.3965 L45.8965,1809.3965" fill="none" style="stroke:#1F618D;stroke-width:0.5;"/></g><g class="participant participant-head" data-entity-uid="part2" data-qualified-name="Controller" id="part2-head"><rect fill="#EBF5FB" height="32.6211" rx="2.5" ry="2.5" style="stroke:#2E4053;stroke-width:0.5;" width="100.3379" x="161.0916" y="121.8535"/><text fill="#000000" font-family="sans-serif" font-size="14" font-weight="bold" lengthAdjust="spacing" textLength="86.3379" x="168.0916" y="143.9609">UrlController</text></g><g class="participant participant-tail" data-entity-uid="part2" data-qualified-name="Controller" id="part2-tail"><rect fill="#EBF5FB" height="32.6211" rx="2.5" ry="2.5" style="stroke:#2E4053;stroke-width:0.5;" width="100.3379" x="161.0916" y="1732.2754"/><text fill="#000000" font-family="sans-serif" font-size="14" font-weight="bold" lengthAdjust="spacing" textLength="86.3379" x="168.0916" y="1754.3828">UrlController</text></g><g class="participant participant-head" data-entity-uid="part3" data-qualified-name="Service" id="part3-head"><rect fill="#EBF5FB" height="32.6211" rx="2.5" ry="2.5" style="stroke:#2E4053;stroke-width:0.5;" width="83.2686" x="457.4268" y="121.8535"/><text fill="#000000" font-family="sans-serif" font-size="14" font-weight="bold" lengthAdjust="spacing" textLength="69.2686" x="464.4268" y="143.9609">UrlService</text></g><g class="participant participant-tail" data-entity-uid="part3" data-qualified-name="Service" id="part3-tail"><rect fill="#EBF5FB" height="32.6211" rx="2.5" ry="2.5" style="stroke:#2E4053;stroke-width:0.5;" width="83.2686" x="457.4268" y="1732.2754"/><text fill="#000000" font-family="sans-serif" font-size="14" font-weight="bold" lengthAdjust="spacing" textLength="69.2686" x="464.4268" y="1754.3828">UrlService</text></g><g class="participant participant-head" data-entity-uid="part4" data-qualified-name="Redis" id="part4-head"><text fill="#000000" font-family="sans-serif" font-size="14" lengthAdjust="spacing" textLength="80.1514" x="652.6436" y="151.9609">Redis Cache</text><path d="M677.7192,100.8535 C677.7192,90.8535 695.7192,90.8535 695.7192,90.8535 C695.7192,90.8535 713.7192,90.8535 713.7192,100.8535 L713.7192,126.8535 C713.7192,136.8535 695.7192,136.8535 695.7192,136.8535 C695.7192,136.8535 677.7192,136.8535 677.7192,126.8535 L677.7192,100.8535" fill="#E2E2F0" style="stroke:#181818;stroke-width:0.5;"/><path d="M677.7192,100.8535 C677.7192,110.8535 695.7192,110.8535 695.7192,110.8535 C695.7192,110.8535 713.7192,110.8535 713.7192,100.8535" fill="none" style="stroke:#181818;stroke-width:0.5;"/></g><g class="participant participant-tail" data-entity-uid="part4" data-qualified-name="Redis" id="part4-tail"><text fill="#000000" font-family="sans-serif" font-size="14" lengthAdjust="spacing" textLength="80.1514" x="652.6436" y="1747.3828">Redis Cache</text><path d="M677.7192,1760.8965 C677.7192,1750.8965 695.7192,1750.8965 695.7192,1750.8965 C695.7192,1750.8965 713.7192,1750.8965 713.7192,1760.8965 L713.7192,1786.8965 C713.7192,1796.8965 695.7192,1796.8965 695.7192,1796.8965 C695.7192,1796.8965 677.7192,1796.8965 677.7192,1786.8965 L677.7192,1760.8965" fill="#E2E2F0" style="stroke:#181818;stroke-width:0.5;"/><path d="M677.7192,1760.8965 C677.7192,1770.8965 695.7192,1770.8965 695.7192,1770.8965 C695.7192,1770.8965 713.7192,1770.8965 713.7192,1760.8965" fill="none" style="stroke:#181818;stroke-width:0.5;"/></g><g class="participant participant-head" data-entity-uid="part5" data-qualified-name="DB" id="part5-head"><text fill="#000000" font-family="sans-serif" font-size="14" lengthAdjust="spacing" textLength="76.2617" x="748.7949" y="151.9609">PostgreSQL</text><path d="M771.9258,100.8535 C771.9258,90.8535 789.9258,90.8535 789.9258,90.8535 C789.9258,90.8535 807.9258,90.8535 807.9258,100.8535 L807.9258,126.8535 C807.9258,136.8535 789.9258,136.8535 789.9258,136.8535 C789.9258,136.8535 771.9258,136.8535 771.9258,126.8535 L771.9258,100.8535" fill="#E2E2F0" style="stroke:#181818;stroke-width:0.5;"/><path d="M771.9258,100.8535 C771.9258,110.8535 789.9258,110.8535 789.9258,110.8535 C789.9258,110.8535 807.9258,110.8535 807.9258,100.8535" fill="none" style="stroke:#181818;stroke-width:0.5;"/></g><g class="participant participant-tail" data-entity-uid="part5" data-qualified-name="DB" id="part5-tail"><text fill="#000000" font-family="sans-serif" font-size="14" lengthAdjust="spacing" textLength="76.2617" x="748.7949" y="1747.3828">PostgreSQL</text><path d="M771.9258,1760.8965 C771.9258,1750.8965 789.9258,1750.8965 789.9258,1750.8965 C789.9258,1750.8965 807.9258,1750.8965 807.9258,1760.8965 L807.9258,1786.8965 C807.9258,1796.8965 789.9258,1796.8965 789.9258,1796.8965 C789.9258,1796.8965 771.9258,1796.8965 771.9258,1786.8965 L771.9258,1760.8965" fill="#E2E2F0" style="stroke:#181818;stroke-width:0.5;"/><path d="M771.9258,1760.8965 C771.9258,1770.8965 789.9258,1770.8965 789.9258,1770.8965 C789.9258,1770.8965 807.9258,1770.8965 807.9258,1760.8965" fill="none" style="stroke:#181818;stroke-width:0.5;"/></g><g><title>UrlController</title><rect fill="#FDFEFE" height="1225.7266" style="stroke:#181818;stroke-width:1;" width="10" x="206.2605" y="234.0566"/></g><g><title>UrlService</title><rect fill="#FDFEFE" height="1145.8535" style="stroke:#181818;stroke-width:1;" width="10" x="494.061" y="265.3477"/></g><g><title>PostgreSQL</title><rect fill="#FDFEFE" height="31.291" style="stroke:#181818;stroke-width:1;" width="10" x="784.9258" y="708.9258"/></g><g><title>PostgreSQL</title><rect fill="#FDFEFE" height="31.291" style="stroke:#181818;stroke-width:1;" width="10" x="784.9258" y="1103"/></g><rect fill="#EEEEEE" height="3" style="stroke:#EEEEEE;stroke-width:1;" width="869.749" x="0" y="187.1201"/><line style="stroke:#000000;stroke-width:1;" x1="0" x2="869.749" y1="187.1201" y2="187.1201"/><line style="stroke:#000000;stroke-width:1;" x1="0" x2="869.749" y1="190.1201" y2="190.1201"/><rect fill="#EEEEEE" height="25.291" style="stroke:#000000;stroke-width:2;" width="130.2891" x="369.73" y="175.4746"/><text fill="#000000" font-family="sans-serif" font-size="13" font-weight="bold" lengthAdjust="spacing" textLength="112.6772" x="375.73" y="193.5029">Incoming Request</text><g class="message" data-entity-1="part1" data-entity-2="part2" id="msg1"><polygon fill="#2E4053" points="194.2605,230.0566,204.2605,234.0566,194.2605,238.0566,198.2605,234.0566" style="stroke:#2E4053;stroke-width:1;"/><line style="stroke:#2E4053;stroke-width:1;" x1="32.8965" x2="200.2605" y1="234.0566" y2="234.0566"/><text fill="#000000" font-family="sans-serif" font-size="13" font-weight="bold" lengthAdjust="spacing" textLength="23.1182" x="39.8965" y="228.7939">[01]</text><text fill="#000000" font-family="sans-serif" font-size="13" lengthAdjust="spacing" textLength="102.6099" x="67.0146" y="228.7939">GET /{shortCode}</text></g><g class="message" data-entity-1="part2" data-entity-2="part3" id="msg2"><polygon fill="#2E4053" points="482.061,261.3477,492.061,265.3477,482.061,269.3477,486.061,265.3477" style="stroke:#2E4053;stroke-width:1;"/><line style="stroke:#2E4053;stroke-width:1;" x1="216.2605" x2="488.061" y1="265.3477" y2="265.3477"/><text fill="#000000" font-family="sans-serif" font-size="13" font-weight="bold" lengthAdjust="spacing" textLength="23.1182" x="223.2605" y="260.085">[02]</text><text fill="#000000" font-family="sans-serif" font-size="13" lengthAdjust="spacing" textLength="218.9116" x="250.3787" y="260.085">getUrlAndIncrementClicks(shortCode)</text></g><rect fill="#EEEEEE" height="3" style="stroke:#EEEEEE;stroke-width:1;" width="869.749" x="0" y="294.9932"/><line style="stroke:#000000;stroke-width:1;" x1="0" x2="869.749" y1="294.9932" y2="294.9932"/><line style="stroke:#000000;stroke-width:1;" x1="0" x2="869.749" y1="297.9932" y2="297.9932"/><rect fill="#EEEEEE" height="25.291" style="stroke:#000000;stroke-width:2;" width="107.1772" x="381.2859" y="283.3477"/><text fill="#000000" font-family="sans-serif" font-size="13" font-weight="bold" lengthAdjust="spacing" textLength="89.5654" x="387.2859" y="301.376">Cache Lookup</text><g class="message" data-entity-1="part3" data-entity-2="part4" id="msg3"><polygon fill="#2E4053" points="683.7192,337.9297,693.7192,341.9297,683.7192,345.9297,687.7192,341.9297" style="stroke:#2E4053;stroke-width:1;"/><line style="stroke:#2E4053;stroke-width:1;" x1="504.061" x2="689.7192" y1="341.9297" y2="341.9297"/><text fill="#000000" font-family="sans-serif" font-size="13" font-weight="bold" lengthAdjust="spacing" textLength="23.1182" x="511.061" y="336.667">[03]</text><text fill="#000000" font-family="sans-serif" font-size="13" lengthAdjust="spacing" textLength="111.2871" x="538.1792" y="336.667">Lookup(shortCode)</text></g><path d="M447.4268,356.9297 L507.5977,356.9297 L507.5977,366.2207 L497.5977,376.2207 L447.4268,376.2207 L447.4268,356.9297" fill="#EEEEEE" style="stroke:#000000;stroke-width:1.5;"/><rect fill="none" height="439.8691" style="stroke:#000000;stroke-width:1.5;" width="408.5586" x="447.4268" y="356.9297"/><text fill="#000000" font-family="sans-serif" font-size="13" font-weight="bold" lengthAdjust="spacing" textLength="15.1709" x="462.4268" y="371.958">alt</text><text fill="#000000" font-family="sans-serif" font-size="11" font-weight="bold" lengthAdjust="spacing" textLength="76.2212" x="522.5977" y="370.7998">[&#9989; Cache Hit]</text><g class="message" data-entity-1="part4" data-entity-2="part3" id="msg4"><polygon fill="#2E4053" points="515.061,395.5117,505.061,399.5117,515.061,403.5117,511.061,399.5117" style="stroke:#2E4053;stroke-width:1;"/><line style="stroke:#2E4053;stroke-width:1;stroke-dasharray:2,2;" x1="509.061" x2="694.7192" y1="399.5117" y2="399.5117"/><text fill="#000000" font-family="sans-serif" font-size="13" font-weight="bold" lengthAdjust="spacing" textLength="23.1182" x="521.061" y="394.249">[04]</text><text fill="#000000" font-family="sans-serif" font-size="13" lengthAdjust="spacing" textLength="57.7891" x="548.1792" y="394.249">Url Object</text></g><path d="M700,412.5117 L700,543.5117 L845,543.5117 L845,422.5117 L835,412.5117 L700,412.5117" fill="#FEFFDD" style="stroke:#181818;stroke-width:0.5;"/><path d="M835,412.5117 L835,422.5117 L845,422.5117 L835,412.5117" fill="#FEFFDD" style="stroke:#181818;stroke-width:0.5;"/><text fill="#000000" font-family="sans-serif" font-size="13" font-weight="bold" lengthAdjust="spacing" textLength="59.96" x="706" y="431.54">Cache Hit</text><text fill="#000000" font-family="sans-serif" font-size="13" lengthAdjust="spacing" textLength="3.6118" x="706" y="448.8311">&#160;</text><text fill="#000000" font-family="sans-serif" font-size="13" lengthAdjust="spacing" textLength="124.9854" x="706" y="466.1221">URL retrieved directly</text><text fill="#000000" font-family="sans-serif" font-size="13" lengthAdjust="spacing" textLength="66.46" x="706" y="483.4131">from Redis.</text><text fill="#000000" font-family="sans-serif" font-size="13" lengthAdjust="spacing" textLength="3.6118" x="706" y="500.7041">&#160;</text><text fill="#000000" font-family="sans-serif" font-size="13" lengthAdjust="spacing" textLength="117.3745" x="706" y="517.9951">&#10004; No database read</text><text fill="#000000" font-family="sans-serif" font-size="13" lengthAdjust="spacing" textLength="107.9546" x="706" y="535.2861">&#10004; Faster response</text><line style="stroke:#000000;stroke-width:1;stroke-dasharray:2,2;" x1="447.4268" x2="855.9854" y1="549.5488" y2="549.5488"/><text fill="#000000" font-family="sans-serif" font-size="11" font-weight="bold" lengthAdjust="spacing" textLength="86.0127" x="452.4268" y="561.4189">[&#10060; Cache Miss]</text><g class="message" data-entity-1="part4" data-entity-2="part3" id="msg5"><polygon fill="#2E4053" points="515.061,584.4707,505.061,588.4707,515.061,592.4707,511.061,588.4707" style="stroke:#2E4053;stroke-width:1;"/><line style="stroke:#2E4053;stroke-width:1;stroke-dasharray:2,2;" x1="509.061" x2="694.7192" y1="588.4707" y2="588.4707"/><text fill="#000000" font-family="sans-serif" font-size="13" font-weight="bold" lengthAdjust="spacing" textLength="23.1182" x="521.061" y="583.208">[05]</text><text fill="#000000" font-family="sans-serif" font-size="13" lengthAdjust="spacing" textLength="20.2363" x="548.1792" y="583.208">null</text></g><path d="M700,601.4707 L700,680.4707 L841,680.4707 L841,611.4707 L831,601.4707 L700,601.4707" fill="#FEFFDD" style="stroke:#181818;stroke-width:0.5;"/><path d="M831,601.4707 L831,611.4707 L841,611.4707 L831,601.4707" fill="#FEFFDD" style="stroke:#181818;stroke-width:0.5;"/><text fill="#000000" font-family="sans-serif" font-size="13" font-weight="bold" lengthAdjust="spacing" textLength="71.5317" x="706" y="620.499">Cache Miss</text><text fill="#000000" font-family="sans-serif" font-size="13" lengthAdjust="spacing" textLength="3.6118" x="706" y="637.79">&#160;</text><text fill="#000000" font-family="sans-serif" font-size="13" lengthAdjust="spacing" textLength="92.498" x="706" y="655.0811">Requested URL</text><text fill="#000000" font-family="sans-serif" font-size="13" lengthAdjust="spacing" textLength="120.688" x="706" y="672.3721">not present in cache.</text><g class="message" data-entity-1="part3" data-entity-2="part5" id="msg6"><polygon fill="#2E4053" points="772.9258,704.9258,782.9258,708.9258,772.9258,712.9258,776.9258,708.9258" style="stroke:#2E4053;stroke-width:1;"/><line style="stroke:#2E4053;stroke-width:1;" x1="504.061" x2="778.9258" y1="708.9258" y2="708.9258"/><text fill="#000000" font-family="sans-serif" font-size="13" font-weight="bold" lengthAdjust="spacing" textLength="23.1182" x="511.061" y="703.6631">[06]</text><text fill="#000000" font-family="sans-serif" font-size="13" lengthAdjust="spacing" textLength="106.939" x="538.1792" y="703.6631">findByShortCode()</text></g><g class="message" data-entity-1="part5" data-entity-2="part3" id="msg7"><polygon fill="#2E4053" points="515.061,736.2168,505.061,740.2168,515.061,744.2168,511.061,740.2168" style="stroke:#2E4053;stroke-width:1;"/><line style="stroke:#2E4053;stroke-width:1;stroke-dasharray:2,2;" x1="509.061" x2="788.9258" y1="740.2168" y2="740.2168"/><text fill="#000000" font-family="sans-serif" font-size="13" font-weight="bold" lengthAdjust="spacing" textLength="23.1182" x="521.061" y="734.9541">[07]</text><text fill="#000000" font-family="sans-serif" font-size="13" lengthAdjust="spacing" textLength="52.73" x="548.1792" y="734.9541">Url Entity</text></g><g class="message" data-entity-1="part3" data-entity-2="part4" id="msg8"><polygon fill="#2E4053" points="683.7192,784.7988,693.7192,788.7988,683.7192,792.7988,687.7192,788.7988" style="stroke:#2E4053;stroke-width:1;"/><line style="stroke:#2E4053;stroke-width:1;" x1="504.061" x2="689.7192" y1="788.7988" y2="788.7988"/><text fill="#000000" font-family="sans-serif" font-size="13" font-weight="bold" lengthAdjust="spacing" textLength="23.1182" x="511.061" y="774.8906">[08]</text><text fill="#000000" font-family="sans-serif" font-size="13" lengthAdjust="spacing" textLength="67.1963" x="538.1792" y="766.2451">Cache URL</text><text fill="#000000" font-family="sans-serif" font-size="13" lengthAdjust="spacing" textLength="110.1763" x="538.1792" y="783.5361">(TTL = 10 minutes)</text></g><rect fill="#EEEEEE" height="3" style="stroke:#EEEEEE;stroke-width:1;" width="869.749" x="0" y="825.4443"/><line style="stroke:#000000;stroke-width:1;" x1="0" x2="869.749" y1="825.4443" y2="825.4443"/><line style="stroke:#000000;stroke-width:1;" x1="0" x2="869.749" y1="828.4443" y2="828.4443"/><rect fill="#EEEEEE" height="25.291" style="stroke:#000000;stroke-width:2;" width="110.0972" x="379.8259" y="813.7988"/><text fill="#000000" font-family="sans-serif" font-size="13" font-weight="bold" lengthAdjust="spacing" textLength="92.4854" x="385.8259" y="831.8271">Click Analytics</text><path d="M509,854.0898 L509,985.0898 L674,985.0898 L674,864.0898 L664,854.0898 L509,854.0898" fill="#FEFFDD" style="stroke:#181818;stroke-width:0.5;"/><path d="M664,854.0898 L664,864.0898 L674,864.0898 L664,854.0898" fill="#FEFFDD" style="stroke:#181818;stroke-width:0.5;"/><text fill="#000000" font-family="sans-serif" font-size="13" lengthAdjust="spacing" textLength="3.6118" x="515" y="873.1182">&#160;</text><text fill="#000000" font-family="sans-serif" font-size="13" font-weight="bold" lengthAdjust="spacing" textLength="96.0781" x="515" y="890.4092">Business Logic</text><text fill="#000000" font-family="sans-serif" font-size="13" lengthAdjust="spacing" textLength="3.6118" x="515" y="907.7002">&#160;</text><text fill="#000000" font-family="sans-serif" font-size="13" lengthAdjust="spacing" textLength="130.9966" x="515" y="924.9912">&#8226; Increment click count</text><text fill="#000000" font-family="sans-serif" font-size="13" lengthAdjust="spacing" textLength="3.6118" x="515" y="942.2822">&#160;</text><text fill="#000000" font-family="sans-serif" font-size="13" lengthAdjust="spacing" textLength="144.0474" x="515" y="959.5732">&#8226; Keep analytics updated</text><text fill="#000000" font-family="sans-serif" font-size="13" lengthAdjust="spacing" textLength="3.6118" x="515" y="976.8643">&#160;</text><g class="message" data-entity-1="part3" data-entity-2="part3" id="msg9"><line style="stroke:#2E4053;stroke-width:1;" x1="504.061" x2="546.061" y1="1013.418" y2="1013.418"/><line style="stroke:#2E4053;stroke-width:1;" x1="546.061" x2="546.061" y1="1013.418" y2="1026.418"/><line style="stroke:#2E4053;stroke-width:1;" x1="505.061" x2="546.061" y1="1026.418" y2="1026.418"/><polygon fill="#2E4053" points="515.061,1022.418,505.061,1026.418,515.061,1030.418,511.061,1026.418" style="stroke:#2E4053;stroke-width:1;"/><text fill="#000000" font-family="sans-serif" font-size="13" font-weight="bold" lengthAdjust="spacing" textLength="23.1182" x="511.061" y="1008.1553">[09]</text><text fill="#000000" font-family="sans-serif" font-size="13" lengthAdjust="spacing" textLength="75.1499" x="538.1792" y="1008.1553">clickCount++</text></g><rect fill="#EEEEEE" height="3" style="stroke:#EEEEEE;stroke-width:1;" width="869.749" x="0" y="1056.0635"/><line style="stroke:#000000;stroke-width:1;" x1="0" x2="869.749" y1="1056.0635" y2="1056.0635"/><line style="stroke:#000000;stroke-width:1;" x1="0" x2="869.749" y1="1059.0635" y2="1059.0635"/><rect fill="#EEEEEE" height="25.291" style="stroke:#000000;stroke-width:2;" width="119.4854" x="375.1318" y="1044.418"/><text fill="#000000" font-family="sans-serif" font-size="13" font-weight="bold" lengthAdjust="spacing" textLength="101.8735" x="381.1318" y="1062.4463">Persist Changes</text><g class="message" data-entity-1="part3" data-entity-2="part5" id="msg10"><polygon fill="#2E4053" points="772.9258,1099,782.9258,1103,772.9258,1107,776.9258,1103" style="stroke:#2E4053;stroke-width:1;"/><line style="stroke:#2E4053;stroke-width:1;" x1="504.061" x2="778.9258" y1="1103" y2="1103"/><text fill="#000000" font-family="sans-serif" font-size="13" font-weight="bold" lengthAdjust="spacing" textLength="23.1182" x="511.061" y="1097.7373">[10]</text><text fill="#000000" font-family="sans-serif" font-size="13" lengthAdjust="spacing" textLength="103.3271" x="538.1792" y="1097.7373">save(updated Url)</text></g><g class="message" data-entity-1="part5" data-entity-2="part3" id="msg11"><polygon fill="#2E4053" points="515.061,1130.291,505.061,1134.291,515.061,1138.291,511.061,1134.291" style="stroke:#2E4053;stroke-width:1;"/><line style="stroke:#2E4053;stroke-width:1;stroke-dasharray:2,2;" x1="509.061" x2="788.9258" y1="1134.291" y2="1134.291"/><text fill="#000000" font-family="sans-serif" font-size="13" font-weight="bold" lengthAdjust="spacing" textLength="23.1182" x="521.061" y="1129.0283">[11]</text><text fill="#000000" font-family="sans-serif" font-size="13" lengthAdjust="spacing" textLength="69.3672" x="548.1792" y="1129.0283">Updated Url</text></g><rect fill="#EEEEEE" height="3" style="stroke:#EEEEEE;stroke-width:1;" width="869.749" x="0" y="1163.9365"/><line style="stroke:#000000;stroke-width:1;" x1="0" x2="869.749" y1="1163.9365" y2="1163.9365"/><line style="stroke:#000000;stroke-width:1;" x1="0" x2="869.749" y1="1166.9365" y2="1166.9365"/><rect fill="#EEEEEE" height="25.291" style="stroke:#000000;stroke-width:2;" width="161.3608" x="354.1941" y="1152.291"/><text fill="#000000" font-family="sans-serif" font-size="13" font-weight="bold" lengthAdjust="spacing" textLength="143.749" x="360.1941" y="1170.3193">Cache Synchronization</text><g class="message" data-entity-1="part3" data-entity-2="part4" id="msg12"><polygon fill="#2E4053" points="683.7192,1206.873,693.7192,1210.873,683.7192,1214.873,687.7192,1210.873" style="stroke:#2E4053;stroke-width:1;"/><line style="stroke:#2E4053;stroke-width:1;" x1="504.061" x2="689.7192" y1="1210.873" y2="1210.873"/><text fill="#000000" font-family="sans-serif" font-size="13" font-weight="bold" lengthAdjust="spacing" textLength="23.1182" x="511.061" y="1205.6104">[12]</text><text fill="#000000" font-family="sans-serif" font-size="13" lengthAdjust="spacing" textLength="135.1226" x="538.1792" y="1205.6104">Refresh Cached Object</text></g><path d="M700,1223.873 L700,1336.873 L864,1336.873 L864,1233.873 L854,1223.873 L700,1223.873" fill="#FEFFDD" style="stroke:#181818;stroke-width:0.5;"/><path d="M854,1223.873 L854,1233.873 L864,1233.873 L854,1223.873" fill="#FEFFDD" style="stroke:#181818;stroke-width:0.5;"/><text fill="#000000" font-family="sans-serif" font-size="13" lengthAdjust="spacing" textLength="3.6118" x="706" y="1242.9014">&#160;</text><text fill="#000000" font-family="sans-serif" font-size="13" font-weight="bold" lengthAdjust="spacing" textLength="143.749" x="706" y="1260.1924">Cache Synchronization</text><text fill="#000000" font-family="sans-serif" font-size="13" lengthAdjust="spacing" textLength="3.6118" x="706" y="1277.4834">&#160;</text><text fill="#000000" font-family="sans-serif" font-size="13" lengthAdjust="spacing" textLength="112.728" x="706" y="1294.7744">Redis now contains</text><text fill="#000000" font-family="sans-serif" font-size="13" lengthAdjust="spacing" textLength="120.6689" x="706" y="1312.0654">the latest click count.</text><text fill="#000000" font-family="sans-serif" font-size="13" lengthAdjust="spacing" textLength="3.6118" x="706" y="1329.3564">&#160;</text><rect fill="#EEEEEE" height="3" style="stroke:#EEEEEE;stroke-width:1;" width="869.749" x="0" y="1364.2646"/><line style="stroke:#000000;stroke-width:1;" x1="0" x2="869.749" y1="1364.2646" y2="1364.2646"/><line style="stroke:#000000;stroke-width:1;" x1="0" x2="869.749" y1="1367.2646" y2="1367.2646"/><rect fill="#EEEEEE" height="25.291" style="stroke:#000000;stroke-width:2;" width="69.6309" x="400.0591" y="1352.6191"/><text fill="#000000" font-family="sans-serif" font-size="13" font-weight="bold" lengthAdjust="spacing" textLength="52.019" x="406.0591" y="1370.6475">Redirect</text><g class="message" data-entity-1="part3" data-entity-2="part2" id="msg13"><polygon fill="#2E4053" points="227.2605,1407.2012,217.2605,1411.2012,227.2605,1415.2012,223.2605,1411.2012" style="stroke:#2E4053;stroke-width:1;"/><line style="stroke:#2E4053;stroke-width:1;stroke-dasharray:2,2;" x1="221.2605" x2="498.061" y1="1411.2012" y2="1411.2012"/><text fill="#000000" font-family="sans-serif" font-size="13" font-weight="bold" lengthAdjust="spacing" textLength="23.1182" x="233.2605" y="1405.9385">[13]</text><text fill="#000000" font-family="sans-serif" font-size="13" lengthAdjust="spacing" textLength="16.6055" x="260.3787" y="1405.9385">Url</text></g><g class="message" data-entity-1="part2" data-entity-2="part1" id="msg14"><polygon fill="#2E4053" points="43.8965,1455.7832,33.8965,1459.7832,43.8965,1463.7832,39.8965,1459.7832" style="stroke:#2E4053;stroke-width:1;"/><line style="stroke:#2E4053;stroke-width:1;stroke-dasharray:2,2;" x1="37.8965" x2="210.2605" y1="1459.7832" y2="1459.7832"/><text fill="#000000" font-family="sans-serif" font-size="13" font-weight="bold" lengthAdjust="spacing" textLength="23.1182" x="49.8965" y="1445.875">[14]</text><text fill="#000000" font-family="sans-serif" font-size="13" lengthAdjust="spacing" textLength="111.2617" x="77.0146" y="1437.2295">HTTP 302 Redirect</text><text fill="#000000" font-family="sans-serif" font-size="13" lengthAdjust="spacing" textLength="114.8926" x="77.0146" y="1454.5205">Location: originalUrl</text></g><rect fill="#EEEEEE" height="3" style="stroke:#EEEEEE;stroke-width:1;" width="869.749" x="0" y="1489.4287"/><line style="stroke:#000000;stroke-width:1;" x1="0" x2="869.749" y1="1489.4287" y2="1489.4287"/><line style="stroke:#000000;stroke-width:1;" x1="0" x2="869.749" y1="1492.4287" y2="1492.4287"/><rect fill="#EEEEEE" height="25.291" style="stroke:#000000;stroke-width:2;" width="131.7427" x="369.0032" y="1477.7832"/><text fill="#000000" font-family="sans-serif" font-size="13" font-weight="bold" lengthAdjust="spacing" textLength="114.1309" x="375.0032" y="1495.8115">Request Complete</text><path d="M5,1518.0742 L5,1718.0742 L819,1718.0742 L819,1528.0742 L809,1518.0742 L5,1518.0742" fill="#FEFFDD" style="stroke:#181818;stroke-width:0.5;"/><path d="M809,1518.0742 L809,1528.0742 L819,1528.0742 L809,1518.0742" fill="#FEFFDD" style="stroke:#181818;stroke-width:0.5;"/><text fill="#000000" font-family="sans-serif" font-size="13" lengthAdjust="spacing" textLength="3.6118" x="281.302" y="1537.1025">&#160;</text><text fill="#000000" font-family="sans-serif" font-size="13" font-weight="bold" lengthAdjust="spacing" textLength="59.249" x="281.302" y="1554.3936">Summary</text><text fill="#000000" font-family="sans-serif" font-size="13" lengthAdjust="spacing" textLength="3.6118" x="281.302" y="1571.6846">&#160;</text><text fill="#000000" font-family="sans-serif" font-size="13" lengthAdjust="spacing" textLength="201.8872" x="281.302" y="1588.9756">&#10004; Redis minimizes database reads</text><text fill="#000000" font-family="sans-serif" font-size="13" lengthAdjust="spacing" textLength="3.6118" x="281.302" y="1606.2666">&#160;</text><text fill="#000000" font-family="sans-serif" font-size="13" lengthAdjust="spacing" textLength="249.5771" x="281.302" y="1623.5576">&#10004; PostgreSQL remains the Source of Truth</text><text fill="#000000" font-family="sans-serif" font-size="13" lengthAdjust="spacing" textLength="3.6118" x="281.302" y="1640.8486">&#160;</text><text fill="#000000" font-family="sans-serif" font-size="13" lengthAdjust="spacing" textLength="146.9609" x="281.302" y="1658.1396">&#10004; Click count is persisted</text><text fill="#000000" font-family="sans-serif" font-size="13" lengthAdjust="spacing" textLength="3.6118" x="281.302" y="1675.4307">&#160;</text><text fill="#000000" font-family="sans-serif" font-size="13" lengthAdjust="spacing" textLength="252.4526" x="281.302" y="1692.7217">&#10004; Redis is synchronized after every redirect</text><text fill="#000000" font-family="sans-serif" font-size="13" lengthAdjust="spacing" textLength="3.6118" x="281.302" y="1710.0127">&#160;</text><?plantuml-src dLR1Rjj64BtpAmRAmGvIsx9TkuvX2x0eiGcgjggbdEeULkH8sfhSLNQNafKWG2wvzTXZUkcd-KiwkqkH51K7HGG35dTctioyUJlKtlKtV88zU7CxWD5Q6ypW06unuGfZGr_UvgWDZEn_4MEmzqtmWU4cHRZI_1rUdhGxLvFEr_D5gLnT7KqwLqSsf7CdVEZnIITayHmFRZHF48RC65G2LjpC7OOcI17FbHJy7JDSYY8-2FGz5mkcM0OJ5j_FbCn54ifKAbZDkS6QNSzP8bTSp63AKhrbAKY0zm7GvqOfkV8OpqxwtxVFJjtnW4znm0LsfKfGVSNUgEDPr8lwKT_v39aoFEOB9inJC7MN9bA_6vr5tQPR98KPcJNDOIBJnBSG6wcsCXn7vySNlPgnYTqxxzz45ywXAn-sOizwvxqV-gLffx-Bw6NqClWG12mtKkJP11MqI0g_jzj_jEZKveCmvIXC44pa0xI62ZKzkL72WArHjSeA5bLdq7gZqf3QKp9DhG_JK3q6A19g-Q70xEQQsDUwmZkBplgdEtWZL4iUemChlZUGNekfOjgeF3QvmX8l2gFJC0eIPjY4QOIMLwOJhaDpppNxK6epKpZwRU3ClMwLv_eQNejOPbQEcxjXxvDd2GuwjJxX4dxiZ-7elPvBPKAPu0T7AbyoWtK-WbeC8HJDKVWC3JL-8nBAgJ2Z39GdljVx9UBp6kA655kaQmu6Kjxd2rVW1fJmVVkNXNKRApNm-FbJ4VwAqzojUdp4mLPjL1ZyElcJbeJt4P9AK7msDo2d1QNsdFHKejaDuhtjjb5e5CSb9k2NJRfsfgcIcOy_zBwFd_-6NoIKyr78aj8GqS29DjBbGWhQ3lRSJikM4mH82mCU__chQEXdhlNJ7OayJVzdBnQeQgOG0ZL2RMq0OE7l2d01iGqwRDHcdsfJwNMfX2aNINSzsana_xbtAqTCKdG7vBmxZRwWhRxs3Wdkn7n10RuPAlfEx8_70xY6upQGjdE3cb9JhLvCLdHm8rYwfXkfdPwsAIgbHmnLzrdEUEnPUlpuBvGQXjZXnRIAZ3VzXBW0LkBd2ver9gw0WgnQyLNJ3YUqC2zUk4A7g3Id6ndEcPYXRWhVKQpP4lUB39Qs-WsoLErIM_a6GOFNygOrNdDFNRbRd98gvZueAU_Fb_GMb6BRUOLQHZsYa2lYaHOo5pemv9jIPNgBuSCwZLHl-MhVAh6vk9hDbWEkhoeRvFVU9RmQZuTmsZufyU_4GCQku4kGr1kdyJPHwplGbUONQYYpHOfaBuKcbxXv4trdUITkHdcMCRKkz4MRm3D2wkKP_SJGs_j2UvzgizDfPba3ozf8vefO8Ex7AZTpxnjM7081Bxosh2ohRFIdo-dGGDdKBYFQQMfD2JmHDVx_0m00?></g></svg>